<?xml version="1.0" standalone="no"?>
<!DOCTYPE svg PUBLIC "-//W3C//DTD SVG 20010904//EN"
 "http://www.w3.org/TR/2001/REC-SVG-20010904/DTD/svg10.dtd">
<svg version="1.0" xmlns="http://www.w3.org/2000/svg"
 width="80.000000pt" height="80.000000pt" viewBox="0 0 80.000000 80.000000"
 preserveAspectRatio="xMidYMid meet">

<g transform="translate(0.000000,80.000000) scale(0.100000,-0.100000)"
fill="#000000" stroke="none">
<path d="M338 790 c-255 -43 -403 -320 -295 -553 43 -94 98 -151 184 -194 73
-36 82 -38 173 -38 91 0 100 2 172 38 82 40 137 96 184 188 115 227 -39 517
-296 558 -36 6 -67 10 -70 10 -3 -1 -26 -5 -52 -9z m192 -135 c12 -13 24 -40
27 -62 5 -35 3 -39 -17 -40 -13 -1 -28 -7 -34 -13 -8 -9 -6 -11 9 -10 49 5 55
1 55 -37 0 -90 -43 -173 -88 -173 -32 0 -92 34 -92 52 0 7 -15 44 -33 81 -19
37 -30 70 -26 73 4 2 10 0 14 -6 10 -16 45 -12 52 6 3 9 -3 21 -16 30 -12 9
-19 20 -16 25 4 5 0 9 -8 9 -18 0 -29 24 -21 45 3 8 26 28 50 44 44 29 45 29
84 14 21 -9 49 -26 60 -38z m-50 -370 c0 -8 -7 -15 -15 -15 -26 0 -18 20 13
29 1 1 2 -6 2 -14z"/>
<path d="M405 580 c3 -5 11 -10 16 -10 6 0 7 5 4 10 -3 6 -11 10 -16 10 -6 0
-7 -4 -4 -10z"/>
<path d="M441 487 c-13 -33 -7 -47 19 -47 23 0 35 16 19 25 -6 4 -14 17 -19
29 -8 20 -8 20 -19 -7z"/>
<path d="M427 404 c-14 -14 7 -34 37 -33 l31 0 -25 11 c-24 11 -24 12 15 18
l40 7 -46 2 c-25 0 -48 -2 -52 -5z"/>
</g>
</svg>
