<!-- Generated by IcoMoon.io -->
<svg version="1.1" xmlns="http://www.w3.org/2000/svg" width="56" height="32" viewBox="0 0 56 32">
<path fill="#00b068" d="M2 3h5.157c3.329 0 5.578 0.15 6.746 0.45 1.179 0.3 2.074 0.792 2.685 1.477s0.993 1.451 1.146 2.296c0.153 0.835 0.229 2.484 0.229 4.946v9.106c0 2.334-0.115 3.897-0.344 4.689-0.218 0.782-0.606 1.397-1.162 1.847-0.557 0.439-1.244 0.749-2.063 0.931-0.819 0.171-2.052 0.257-3.7 0.257h-8.694v-26zM8.893 7.448v17.103c0.993 0 1.605-0.193 1.834-0.578 0.229-0.396 0.344-1.461 0.344-3.196v-10.101c0-1.178-0.038-1.932-0.115-2.264s-0.251-0.573-0.524-0.723c-0.273-0.161-0.786-0.241-1.539-0.241z"></path>
<path fill="#00b068" d="M22.106 3h11.494v5.203h-4.601v4.93h4.306v4.946h-4.306v5.717h5.059v5.203h-11.952v-26z"></path>
<path fill="#00b068" d="M54 3l-3.504 26h-10.462l-3.979-26h7.269c0.841 7.162 1.441 13.217 1.801 18.163 0.36-5 0.737-9.443 1.13-13.329l0.475-4.834h7.27z"></path>
</svg>
