<!-- Generated by IcoMoon.io -->
<svg version="1.1" xmlns="http://www.w3.org/2000/svg" width="32" height="32" viewBox="0 0 32 32">
<path fill="none" stroke-linejoin="round" stroke-linecap="round" stroke-miterlimit="4" stroke-width="2.0645" stroke="#000" d="M9.388 11.591c-0.064-0.414-0.097-0.837-0.097-1.268 0-4.561 3.722-8.258 8.312-8.258s8.312 3.697 8.312 8.258c0 1.030-0.19 2.017-0.537 2.926-0.072 0.189-0.108 0.283-0.125 0.357s-0.023 0.124-0.024 0.199c-0.002 0.075 0.008 0.159 0.029 0.325l0.415 3.376c0.045 0.365 0.067 0.548 0.007 0.681-0.053 0.116-0.148 0.209-0.265 0.259-0.134 0.058-0.316 0.031-0.681-0.022l-3.288-0.482c-0.172-0.025-0.258-0.038-0.336-0.037s-0.131 0.006-0.207 0.022c-0.076 0.016-0.174 0.053-0.37 0.126-0.912 0.342-1.9 0.528-2.932 0.528-0.432 0-0.856-0.033-1.27-0.096M10.975 22.71c3.061 0 5.542-2.542 5.542-5.677s-2.481-5.677-5.542-5.677c-3.061 0-5.542 2.542-5.542 5.677 0 0.63 0.1 1.237 0.285 1.803 0.078 0.239 0.117 0.359 0.13 0.441 0.013 0.085 0.016 0.133 0.011 0.22-0.005 0.083-0.025 0.176-0.067 0.363l-0.631 2.851 3.091-0.422c0.169-0.023 0.253-0.035 0.327-0.034 0.078 0.001 0.119 0.005 0.195 0.020 0.072 0.014 0.18 0.052 0.395 0.128 0.566 0.2 1.174 0.308 1.806 0.308z"></path>
</svg>
